Coordinates
version=1
nRows=36
nColumns=34
inDegrees=no

Units are S.I. units (second, meters, Newtons, ...)
If the header above contains a line with 'inDegrees', this indicates whether rotational values are in degrees (yes) or radians (no).

endheader
time	pelvis_tilt	pelvis_list	pelvis_rotation	pelvis_tx	pelvis_ty	pelvis_tz	hip_flexion_r	hip_adduction_r	hip_rotation_r	knee_angle_r	ankle_angle_r	subtalar_angle_r	mtp_angle_r	hip_flexion_l	hip_adduction_l	hip_rotation_l	knee_angle_l	ankle_angle_l	subtalar_angle_l	mtp_angle_l	lumbar_extension	lumbar_bending	lumbar_rotation	arm_flex_r	arm_add_r	arm_rot_r	elbow_flex_r	pro_sup_r	arm_flex_l	arm_add_l	arm_rot_l	elbow_flex_l	pro_sup_l
0	-0.0990224	-0.0318996	0.029172	-0.1372	0.985183	-0.24776	0.489091	0.00911401	-0.0892952	0.017774	0.0083421	0.0851976	-9.22713e-05	-0.0537861	-0.013474	0.0179094	0.250581	0.379047	0.0905405	-9.66259e-05	-0.0105069	0.0261024	-0.109715	-0.233064	-0.0839776	-0.395915	0.732051	1.80322	0.246298	-0.446473	0.0240294	1.13709	1.6543
0.01	-0.0971109	-0.0401064	0.0279808	-0.122715	0.993786	-0.246523	0.479869	0.0208109	-0.0804885	0.0273908	-0.00161951	0.0696351	-9.22928e-05	-0.0595546	-0.02449	0.010894	0.272273	0.381734	0.0911229	-9.65997e-05	-0.00881337	0.0388037	-0.110854	-0.232892	-0.0842208	-0.398061	0.723955	1.8015	0.240412	-0.444906	0.017606	1.15408	1.65184
0.02	-0.0955645	-0.0485425	0.0265583	-0.108284	1.0015	-0.245219	0.471151	0.0326646	-0.0731009	0.0374715	-0.0117157	0.0547913	-9.23144e-05	-0.0628729	-0.03637	0.00317528	0.297357	0.379589	0.0907277	-9.65735e-05	-0.0067614	0.0515441	-0.111725	-0.233018	-0.0846503	-0.399565	0.716362	1.79985	0.233212	-0.442784	0.0115793	1.17008	1.64967
0.03	-0.094372	-0.0572161	0.0249037	-0.0939142	1.00837	-0.243849	0.462929	0.0446717	-0.0670914	0.0479873	-0.0219371	0.04065	-9.2336e-05	-0.0636993	-0.0491164	-0.00522623	0.325875	0.372579	0.0893447	-9.65473e-05	-0.00435053	0.0643183	-0.112326	-0.233437	-0.0852651	-0.400429	0.709274	1.79828	0.22471	-0.44011	0.00596229	1.18507	1.64781
0.04	-0.0935279	-0.0661281	0.0230227	-0.0796187	1.01444	-0.242415	0.455175	0.0568217	-0.0623621	0.0588776	-0.0322234	0.0271936	-9.23575e-05	-0.0619207	-0.0627334	-0.014235	0.357948	0.360614	0.0869436	-9.65211e-05	-0.00159359	0.0771154	-0.112654	-0.234129	-0.0860619	-0.400665	0.702695	1.79682	0.214944	-0.43689	0.000786752	1.19902	1.64629
0.05	-0.093035	-0.0752684	0.0209352	-0.0654201	1.01977	-0.24092	0.447853	0.0690892	-0.0587728	0.0700624	-0.0424082	0.0144416	-9.23791e-05	-0.0573413	-0.0772174	-0.0236831	0.39377	0.343541	0.0834693	-9.6495e-05	0.00147525	0.0899132	-0.112716	-0.235051	-0.0870331	-0.400295	0.696642	1.79548	0.203986	-0.433143	-0.00389919	1.21188	1.64519
0.06	-0.0929013	-0.0846146	0.0186835	-0.0513496	1.02439	-0.23937	0.440921	0.0814283	-0.0561728	0.0814537	-0.0521783	0.00248568	-9.24007e-05	-0.0496957	-0.0925414	-0.0332809	0.43357	0.321164	0.0788373	-9.64688e-05	0.00479767	0.102673	-0.112533	-0.236139	-0.0881666	-0.399364	0.691142	1.79434	0.191952	-0.4289	-0.00804002	1.22359	1.6446
0.07	-0.0931363	-0.0941303	0.0163386	-0.0374456	1.02838	-0.237774	0.434332	0.093773	-0.0544294	0.0929532	-0.0610739	-0.00850129	-9.24222e-05	-0.0386832	-0.108638	-0.0426103	0.477552	0.293301	0.0729314	-9.64426e-05	0.00829406	0.115337	-0.112152	-0.23731	-0.0894452	-0.397935	0.686239	1.79345	0.178996	-0.424205	-0.0115862	1.23408	1.64462
0.08	-0.0937456	-0.103765	0.0140002	-0.0237491	1.03178	-0.236148	0.428028	0.106042	-0.0534419	0.104437	-0.0685368	-0.0182896	-9.24438e-05	-0.0240191	-0.125383	-0.0511475	0.525814	0.259856	0.0656039	-9.64164e-05	0.0118704	0.12783	-0.11164	-0.238473	-0.0908485	-0.39609	0.682001	1.79288	0.165306	-0.419106	-0.0145084	1.24333	1.64531
0.09	-0.0947238	-0.113453	0.0117898	-0.0102979	1.03466	-0.234509	0.42193	0.118144	-0.05314	0.115737	-0.0739968	-0.0266409	-9.24654e-05	-0.00549382	-0.142588	-0.0583178	0.57828	0.220921	0.0566819	-9.63902e-05	0.0154274	0.140056	-0.111085	-0.239544	-0.0923567	-0.393917	0.678509	1.79266	0.151082	-0.413649	-0.0168085	1.2513	1.64668
0.1	-0.0960468	-0.12311	0.00983506	0.00287677	1.03708	-0.232875	0.415923	0.129989	-0.0534694	0.126625	-0.0769726	-0.0333612	-9.2487e-05	0.0169686	-0.16	-0.0635759	0.634632	0.176889	0.0459795	-9.6364e-05	0.0188685	0.151903	-0.110578	-0.240457	-0.0939541	-0.391491	0.675859	1.79278	0.136523	-0.407867	-0.0185253	1.258	1.64869
0.11	-0.0976707	-0.132633	0.00824937	0.0157564	1.03908	-0.231266	0.409858	0.141486	-0.0543731	0.136824	-0.0771582	-0.0383414	-9.25086e-05	0.0432628	-0.177308	-0.0664957	0.694286	0.128568	0.0333135	-9.63378e-05	0.0221036	0.163241	-0.110196	-0.241168	-0.0956329	-0.388859	0.674141	1.79318	0.121805	-0.401779	-0.0197329	1.26344	1.65123
0.12	-0.0995377	-0.141901	0.00711121	0.0283364	1.04073	-0.229696	0.40355	0.15255	-0.0557727	0.14602	-0.0744737	-0.0415739	-9.25302e-05	0.0730747	-0.19416	-0.0668498	0.756397	0.0772601	0.0185206	-9.63116e-05	0.0250481	0.173924	-0.10998	-0.241655	-0.097395	-0.386027	0.673425	1.79373	0.107069	-0.395387	-0.0205333	1.26763	1.65412
0.13	-0.101575	-0.150778	0.00644528	0.0406261	1.04208	-0.228173	0.396793	0.163097	-0.0575585	0.153907	-0.0690693	-0.0431401	-9.25518e-05	0.105883	-0.210193	-0.0646603	0.819894	0.0247921	0.00147716	-9.62854e-05	0.0276225	0.183792	-0.109925	-0.241915	-0.0992506	-0.382956	0.673739	1.79425	0.0924186	-0.388682	-0.0210435	1.27057	1.65719
0.14	-0.103694	-0.159116	0.00621145	0.0526488	1.04317	-0.2267	0.389376	0.173039	-0.0595872	0.160224	-0.0612886	-0.0431793	-9.25734e-05	0.140991	-0.225054	-0.0602089	0.88355	-0.0265489	-0.0178757	-9.62592e-05	0.0297504	0.192672	-0.109967	-0.24195	-0.101214	-0.379571	0.675055	1.79457	0.0779132	-0.381649	-0.0213823	1.27223	1.66026
0.15	-0.105792	-0.166759	0.0063056	0.0644362	1.04407	-0.225273	0.38111	0.182284	-0.0616855	0.164792	-0.0516072	-0.0418554	-9.25951e-05	0.177586	-0.238429	-0.0540006	0.946066	-0.0741778	-0.0394956	-9.6233e-05	0.0313605	0.200386	-0.109988	-0.241759	-0.103298	-0.375786	0.677279	1.79448	0.0635783	-0.374276	-0.0216573	1.27251	1.66319
0.16	-0.107768	-0.173547	0.00657243	0.0760248	1.04483	-0.223883	0.371849	0.190733	-0.0636569	0.167542	-0.0405628	-0.0393353	-9.26167e-05	0.214818	-0.250063	-0.0466908	1.00616	-0.115475	-0.0631957	-9.62068e-05	0.0323917	0.206756	-0.109833	-0.241332	-0.105503	-0.371529	0.680256	1.79386	0.0494114	-0.366562	-0.0219563	1.2713	1.66589
0.17	-0.109528	-0.179326	0.0068281	0.0874512	1.0455	-0.222519	0.361513	0.198284	-0.0652923	0.168523	-0.0286901	-0.0357833	-9.26383e-05	0.251883	-0.259768	-0.0389898	1.06265	-0.148112	-0.0885988	-9.61805e-05	0.0328008	0.211617	-0.109331	-0.240642	-0.107814	-0.366774	0.683783	1.79264	0.0353915	-0.35852	-0.022343	1.26847	1.66829
0.18	-0.111005	-0.183958	0.00688779	0.0987477	1.04612	-0.221169	0.350093	0.204835	-0.0663799	0.167894	-0.0164704	-0.0313722	-9.266e-05	0.288093	-0.267425	-0.0315656	1.11448	-0.170383	-0.115104	-9.61543e-05	0.0325711	0.214826	-0.108327	-0.239658	-0.110195	-0.361557	0.687634	1.79081	0.0214885	-0.350183	-0.0228588	1.26386	1.67035
0.19	-0.112174	-0.187317	0.00659503	0.109942	1.04674	-0.219824	0.337658	0.210298	-0.0667164	0.165903	-0.00429726	-0.0263016	-9.26816e-05	0.32292	-0.272987	-0.0249649	1.16081	-0.181467	-0.14188	-9.61281e-05	0.0317139	0.216275	-0.1067	-0.238348	-0.112589	-0.355992	0.691596	1.78846	0.00766995	-0.341601	-0.0235269	1.25733	1.67204
0.2	-0.113081	-0.189317	0.00584978	0.12105	1.04736	-0.218474	0.32433	0.214609	-0.0661192	0.162858	0.00754237	-0.0208127	-9.27033e-05	0.356015	-0.276469	-0.0195656	1.20098	-0.181544	-0.167894	-9.61018e-05	0.0302612	0.215901	-0.104383	-0.236694	-0.114922	-0.350259	0.695494	1.78576	-0.00609432	-0.332841	-0.024359	1.24878	1.67331
0.21	-0.113777	-0.189949	0.00460306	0.132087	1.048	-0.217113	0.310287	0.217734	-0.0644418	0.15908	0.018875	-0.0151881	-9.27249e-05	0.387203	-0.277945	-0.0155654	1.23451	-0.171742	-0.191993	-9.60755e-05	0.0282832	0.213685	-0.10137	-0.234704	-0.117117	-0.344582	0.699224	1.7829	-0.0198307	-0.323979	-0.0253626	1.23817	1.67413
0.22	-0.114314	-0.189259	0.00285986	0.143065	1.04865	-0.215736	0.295732	0.219682	-0.0615938	0.154872	0.0296377	-0.00972921	-9.27466e-05	0.416457	-0.277547	-0.0129957	1.26114	-0.153928	-0.21302	-9.60492e-05	0.0258756	0.20967	-0.0977126	-0.232415	-0.119102	-0.339195	0.702764	1.78007	-0.0335603	-0.315093	-0.0265475	1.22554	1.67439
0.23	-0.114747	-0.187352	0.000676264	0.15399	1.04929	-0.214342	0.280867	0.220516	-0.0575613	0.150492	0.0398681	-0.00471521	-9.27682e-05	0.443842	-0.27547	-0.0117585	1.28077	-0.130367	-0.22995	-9.60228e-05	0.0231397	0.203968	-0.0935149	-0.229898	-0.120829	-0.33431	0.706174	1.77746	-0.0472989	-0.306254	-0.0279305	1.21098	1.67399
0.24	-0.115125	-0.184384	-0.00185252	0.164868	1.04991	-0.212936	0.265864	0.22035	-0.0524245	0.146142	0.0496873	-0.000352528	-9.27899e-05	0.46947	-0.271959	-0.0116722	1.29343	-0.103368	-0.242013	-9.59964e-05	0.0201644	0.196761	-0.0889124	-0.227242	-0.12228	-0.33008	0.709579	1.7752	-0.0610558	-0.297521	-0.0295375	1.19468	1.67276
0.25	-0.115482	-0.180554	-0.00460748	0.175704	1.05049	-0.211525	0.250851	0.21934	-0.046366	0.14196	0.0592785	0.00327291	-9.28116e-05	0.493458	-0.267307	-0.0125165	1.29931	-0.0749568	-0.248787	-9.597e-05	0.0170116	0.18829	-0.0840572	-0.224548	-0.123479	-0.326583	0.713147	1.77331	-0.0748318	-0.288928	-0.0314029	1.17684	1.67056
0.26	-0.11582	-0.176094	-0.00746096	0.186502	1.05101	-0.210121	0.235904	0.217675	-0.0396692	0.138034	0.0688623	0.00622968	-9.28332e-05	0.515896	-0.261831	-0.0140678	1.29868	-0.0466691	-0.250243	-9.59435e-05	0.013708	0.178846	-0.0791021	-0.221912	-0.124489	-0.323818	0.717058	1.77178	-0.0886158	-0.280487	-0.0335666	1.1577	1.66722
0.27	-0.116115	-0.171251	-0.0102907	0.19727	1.05145	-0.208733	0.221056	0.215555	-0.0326904	0.134418	0.078665	0.0087293	-9.28549e-05	0.536843	-0.255854	-0.0161219	1.2919	-0.0194767	-0.246727	-9.5917e-05	0.010249	0.168742	-0.0741878	-0.219413	-0.125403	-0.32171	0.721474	1.77049	-0.102384	-0.272188	-0.0360699	1.13751	1.66265
0.28	-0.116319	-0.166271	-0.0129918	0.208014	1.05179	-0.207375	0.206312	0.213175	-0.0258206	0.131141	0.0888893	0.0110887	-9.28766e-05	0.556325	-0.249682	-0.0185053	1.27934	0.00615889	-0.238905	-9.58905e-05	0.00661208	0.158292	-0.0694342	-0.217113	-0.126337	-0.320133	0.726518	1.76932	-0.116098	-0.264002	-0.0389509	1.11646	1.65683
0.29	-0.116378	-0.16139	-0.0154804	0.218741	1.052	-0.206057	0.191669	0.210713	-0.0194438	0.128231	0.0996931	0.0136764	-9.28983e-05	0.574349	-0.243579	-0.0210788	1.26139	0.0301423	-0.227669	-9.58639e-05	0.0027684	0.147781	-0.0649331	-0.21505	-0.127409	-0.318931	0.73226	1.76814	-0.129711	-0.255894	-0.0422417	1.09472	1.64987
0.3	-0.11626	-0.1568	-0.017693	0.229459	1.05209	-0.204788	0.177126	0.208311	-0.0138974	0.125724	0.111176	0.0168512	-9.292e-05	0.590906	-0.237755	-0.023736	1.23844	0.0525595	-0.214019	-9.58374e-05	-0.00130506	0.137445	-0.0607447	-0.213247	-0.128727	-0.317945	0.738718	1.76687	-0.143167	-0.247828	-0.0459677	1.07239	1.64201
0.31	-0.11596	-0.152639	-0.0195884	0.240175	1.05204	-0.203573	0.162702	0.206074	-0.00943927	0.123666	0.123376	0.0209024	-9.29417e-05	0.605987	-0.232353	-0.0264027	1.21081	0.0734986	-0.198955	-9.58108e-05	-0.00561268	0.127453	-0.056899	-0.211716	-0.130373	-0.317029	0.745867	1.7655	-0.15641	-0.23978	-0.05015	1.04954	1.63359
0.32	-0.115497	-0.148986	-0.0211474	0.250896	1.05183	-0.202413	0.148441	0.204067	-0.00622333	0.122111	0.13627	0.0260013	-9.29634e-05	0.619584	-0.227449	-0.0290407	1.17878	0.0929085	-0.183373	-9.57842e-05	-0.0101314	0.1179	-0.053401	-0.21047	-0.132393	-0.316063	0.753651	1.76405	-0.169392	-0.231741	-0.0548109	1.02617	1.62505
0.33	-0.114918	-0.145858	-0.0223688	0.261628	1.05146	-0.201308	0.134407	0.202314	-0.00428752	0.12111	0.149781	0.032172	-9.29852e-05	0.631694	-0.223058	-0.0316569	1.14257	0.110511	-0.16799	-9.57576e-05	-0.0148105	0.108809	-0.0502377	-0.209522	-0.134796	-0.314966	0.762004	1.76261	-0.182077	-0.223719	-0.0599822	1.00229	1.61681
0.34	-0.114282	-0.14322	-0.0232644	0.272382	1.05094	-0.200251	0.120669	0.200807	-0.00355668	0.120696	0.16379	0.0392904	-9.30069e-05	0.642308	-0.219143	-0.0343176	1.10231	0.125769	-0.1533	-9.57309e-05	-0.0195791	0.100131	-0.0473884	-0.208888	-0.137551	-0.313696	0.770854	1.76128	-0.194454	-0.215738	-0.0657131	0.977901	1.60926
0.35	-0.11365	-0.141	-0.0238546	0.283166	1.05024	-0.199236	0.107281	0.199515	-0.00386331	0.120872	0.178151	0.0471145	-9.30286e-05	0.651402	-0.215637	-0.037165	1.0581	0.137905	-0.13956	-9.57043e-05	-0.0243591	0.0917692	-0.0448339	-0.208587	-0.140598	-0.312244	0.780136	1.76016	-0.20654	-0.207828	-0.0720773	0.953034	1.60261
